PathFileType	4	(X/Y/Z)	Kaydara	
DataRate	CameraRate	NumFrames	NumMarkers	Units	OrigDataRate	OrigDataStartFrame	OrigNumFrames	
60.00	60.00	4	74	mm	60.00	1084	111	
Frame#	Time	Y_rasi			Y_rpsi			Y_lpsi			Y_fneck			Y_bneck			Y_fhead			Y_rhead			Y_rshld			Y_relbtop			Y_relbext			Y_relblow			Y_rwrext			Y_rwrtop			Y_rwrlow			Y_lshld			Y_lelbext			Y_lelblow			Y_lelbtop			Y_lwrext			Y_lwrtop			Y_lwrlow			Y_rtopleg			Y_ltopleg			Y_rkneefr			Y_rkneebk			Y_rkneeis			Y_lkneefr			Y_lknssbk			Y_lkneeis			Y_rankfr			Y_rankis			Y_rankbk			Y_lankfr			Y_lankbk			Y_lankis			Y_lhead			Y_lasi			D_rpsi			D_lpsi			D_fneck			D_bneck			D_fhead			D_rhead			D_lhead			D_rshld			D_relbtop			D_relbext			D_relblow			D_rwrext			D_rwrtop			D_rwrlow			D_lshld			D_lelbext			D_lelblow			D_lelbtop			D_lwrext			D_lwrtop			D_lwrlow			D_rtopleg			D_ltopleg			D_rkneefr			D_rkneebk			D_rkneeis			D_lkneefr			D_lknssbk			D_lkneeis			D_rankfr			D_rankis			D_rankbk			D_lankfr			D_lankbk			D_lankis			D_lasi			D_rasi			
		X1	Y1	Z1	X2	Y2	Z2	X3	Y3	Z3	X4	Y4	Z4	X5	Y5	Z5	X6	Y6	Z6	X7	Y7	Z7	X8	Y8	Z8	X9	Y9	Z9	X10	Y10	Z10	X11	Y11	Z11	X12	Y12	Z12	X13	Y13	Z13	X14	Y14	Z14	X15	Y15	Z15	X16	Y16	Z16	X17	Y17	Z17	X18	Y18	Z18	X19	Y19	Z19	X20	Y20	Z20	X21	Y21	Z21	X22	Y22	Z22	X23	Y23	Z23	X24	Y24	Z24	X25	Y25	Z25	X26	Y26	Z26	X27	Y27	Z27	X28	Y28	Z28	X29	Y29	Z29	X30	Y30	Z30	X31	Y31	Z31	X32	Y32	Z32	X33	Y33	Z33	X34	Y34	Z34	X35	Y35	Z35	X36	Y36	Z36	X37	Y37	Z37	X38	Y38	Z38	X39	Y39	Z39	X40	Y40	Z40	X41	Y41	Z41	X42	Y42	Z42	X43	Y43	Z43	X44	Y44	Z44	X45	Y45	Z45	X46	Y46	Z46	X47	Y47	Z47	X48	Y48	Z48	X49	Y49	Z49	X50	Y50	Z50	X51	Y51	Z51	X52	Y52	Z52	X53	Y53	Z53	X54	Y54	Z54	X55	Y55	Z55	X56	Y56	Z56	X57	Y57	Z57	X58	Y58	Z58	X59	Y59	Z59	X60	Y60	Z60	X61	Y61	Z61	X62	Y62	Z62	X63	Y63	Z63	X64	Y64	Z64	X65	Y65	Z65	X66	Y66	Z66	X67	Y67	Z67	X68	Y68	Z68	X69	Y69	Z69	X70	Y70	Z70	X71	Y71	Z71	X72	Y72	Z72	X73	Y73	Z73	X74	Y74	Z74	

84	18.050	-539.73782	1092.04590	-152.71657	-529.77795	1075.11436	-335.92358	-304.34645	1059.71291	-260.46474	-452.71328	1428.96790	-166.12560	-366.82411	1485.44495	-235.27544	-533.02673	1617.83020	-117.13269	-463.85532	1563.50845	-272.59108	-582.10903	1434.99191	-303.10015	-617.11761	1132.73811	-364.66949	-622.24892	1149.03130	-422.55413	-555.38044	1127.24342	-427.08252	-673.27332	897.40761	-309.96120	-700.86472	919.96399	-285.37764	-675.84076	937.05925	-251.99974	-229.85971	1389.60541	-106.12763	-144.81067	1086.92940	-188.31327	-194.02531	1077.15866	-221.29417	-198.98121	1096.04416	-147.45440	-259.96145	864.94339	-95.90075	-260.32698	880.28770	-54.25443	-301.38565	905.36041	-57.74473	-607.65003	918.22693	-297.06495	-274.93057	905.76431	-149.71759	-634.39671	413.43102	-283.03261	-609.99615	455.67356	-358.24043	-538.82008	418.49991	-271.19318	-327.89627	475.67551	-122.99074	-262.33223	493.73604	-215.87566	-383.02547	469.56657	-202.14230	-630.65632	142.62788	-331.26076	-559.63779	133.58358	-342.51884	-599.65412	136.60508	-397.02145	-273.56302	131.60062	-171.79417	-255.81032	128.33019	-239.21438	-329.59625	126.21766	-209.59648	-363.31947	1574.91028	-161.77294	-387.44446	1073.98880	-101.69866	-1015.15915	1173.64998	582.20890	-1138.21770	1183.19237	455.12424	-973.92555	1598.66928	436.28067	-1072.49474	1653.89191	493.48526	-915.61096	1784.28391	326.52836	-980.15114	1794.77829	492.86724	-1082.56363	1790.26993	379.16630	-893.32756	1562.73987	575.74345	-867.87582	1193.91029	536.37833	-807.27150	1204.39323	565.36659	-860.17677	1182.75368	620.98995	-782.81509	929.27330	458.73508	-770.87044	948.88641	422.99545	-812.49512	960.27817	401.01269	-1196.55167	1559.81384	348.66718	-1175.52147	1190.42389	273.59219	-1168.40591	1167.56088	349.16721	-1114.89777	1200.02289	287.07520	-1100.99091	948.02216	238.70390	-1072.12257	968.96080	210.38649	-1038.39424	970.31303	243.50965	-896.20857	1040.09506	591.62178	-1144.10164	1024.54514	337.67162	-719.80179	590.53905	424.60461	-761.04309	582.46883	531.14902	-835.06523	561.66656	435.93800	-1042.57111	469.50912	380.26573	-1139.90532	513.76678	419.36459	-1058.26004	502.63248	492.03739	-790.68825	220.35620	532.92088	-863.03703	220.74135	505.62954	-851.17851	230.09203	592.26902	-1067.26830	159.42954	408.91548	-1089.78622	149.51400	485.87421	-1006.10573	167.43334	448.68790	-1034.76822	1187.53105	333.98228	-887.08199	1181.86554	474.74205 
85	18.067	-540.14854	1091.95557	-152.70124	-529.96021	1075.12962	-335.87425	-304.60043	1059.63501	-260.33087	-453.36639	1428.80096	-166.10073	-366.72123	1485.40207	-234.67007	-534.24522	1617.47452	-118.07487	-462.53319	1563.78998	-272.73464	-582.57912	1434.35410	-302.59369	-614.23988	1130.45471	-362.85950	-622.39758	1146.72012	-419.93069	-555.09453	1127.58774	-428.13393	-653.55400	889.11034	-311.88751	-681.11862	908.43582	-284.74762	-656.04446	926.59439	-252.36437	-230.51472	1388.51471	-105.28983	-147.50319	1085.53871	-188.45999	-195.33255	1077.41074	-223.84304	-203.36826	1093.47801	-149.40173	-265.86193	859.64821	-110.44676	-268.45623	872.48077	-68.34846	-308.86913	897.64542	-72.08026	-607.63771	918.71574	-297.75171	-275.23884	905.77087	-149.62718	-634.53003	413.33649	-282.97367	-610.19905	455.67234	-358.17551	-538.94886	418.50979	-271.17502	-328.09792	475.60875	-122.96743	-262.49313	493.77277	-215.93452	-383.59200	469.75761	-202.60624	-630.62756	142.58542	-331.21597	-559.90906	133.51048	-342.34657	-599.70337	136.60494	-396.99780	-273.61862	131.61285	-171.75856	-255.84970	128.32273	-239.22348	-329.65099	126.20929	-209.62894	-362.65678	1574.85550	-162.40749	-387.83852	1073.88405	-101.73620	-1016.52786	1173.80272	581.71196	-1138.99620	1182.94724	453.95664	-975.07607	1598.51044	435.28374	-1073.65234	1653.89069	492.15160	-915.97458	1783.69446	325.38551	-981.00189	1794.73206	491.51054	-1083.00270	1790.27191	377.65587	-895.07401	1562.25967	575.58575	-870.61089	1193.28835	536.05907	-810.99777	1203.26637	567.12109	-866.10367	1182.09557	620.70385	-785.11681	927.41219	462.12315	-770.79140	946.78802	427.16381	-810.82497	959.07722	402.59583	-1197.31651	1559.32678	346.72794	-1176.11290	1189.72427	272.46429	-1168.54897	1166.82129	347.93591	-1115.46242	1199.59023	286.07479	-1100.22507	947.53166	238.16257	-1072.05055	968.63144	209.14404	-1037.75841	970.48256	242.15796	-897.24319	1040.42480	591.53461	-1144.25026	1024.15039	336.82365	-717.77496	592.01855	425.72422	-759.86115	583.86963	531.82587	-832.89597	562.72095	435.35145	-1042.97340	469.28841	380.60238	-1140.69748	513.60298	419.18430	-1059.16977	502.44713	492.36610	-789.93538	221.91860	533.93085	-862.01279	222.16909	505.86273	-851.18744	231.85011	592.52796	-1067.37587	159.37881	408.86696	-1090.09293	149.32570	485.68565	-1006.29257	167.45516	448.84701	-1034.83971	1187.27219	333.44593	-887.86568	1181.99265	474.87804 
86	18.083	-540.66055	1091.82961	-152.62935	-530.26760	1075.09361	-335.73154	-305.06508	1059.48853	-259.99968	-453.71704	1428.67737	-166.12379	-366.70803	1485.29037	-233.97219	-535.43808	1617.31461	-119.32652	-461.06709	1564.10172	-272.72409	-583.36990	1433.43826	-301.73098	-607.76535	1126.58508	-361.01994	-621.88164	1143.80371	-416.59111	-554.69151	1127.69333	-428.69675	-633.31734	882.15004	-313.96753	-661.70341	897.98195	-284.81071	-634.95041	916.70654	-252.67324	-230.83782	1387.02057	-104.48314	-150.31931	1083.83400	-189.06887	-196.53009	1077.64870	-226.84389	-207.92990	1090.70953	-152.01507	-271.17548	856.11961	-124.83994	-273.90018	865.31761	-84.23276	-313.88422	891.36864	-87.81881	-605.23853	918.72368	-297.54726	-274.98873	906.89590	-149.74915	-634.86736	413.37261	-282.88769	-610.45544	455.51788	-358.02216	-539.12205	418.56785	-271.13947	-328.25333	475.40108	-123.04549	-262.90207	493.59730	-215.91793	-383.79482	469.68739	-202.50584	-630.66982	142.49870	-331.27377	-559.89536	133.54569	-342.39502	-599.76372	136.60508	-396.98647	-273.68368	131.60614	-171.76846	-255.92926	128.34702	-239.24707	-329.70512	126.20118	-209.59723	-361.69239	1574.83612	-162.95483	-388.32069	1073.79608	-101.54697	-1017.69791	1173.92334	580.91312	-1139.87968	1182.55592	452.82429	-975.99319	1598.51425	434.80263	-1074.77600	1653.82751	490.98099	-916.33354	1783.29620	324.19182	-981.44943	1794.99313	490.20237	-1083.34450	1790.35629	376.22414	-896.58203	1561.72089	575.73120	-872.90016	1192.50847	535.25394	-814.89548	1201.81381	568.96740	-872.66754	1181.28586	620.05020	-787.45941	925.46753	465.89302	-771.14059	944.72328	431.34621	-809.67369	957.41669	404.87347	-1197.76215	1558.76511	344.91413	-1176.59950	1188.80440	271.57864	-1169.15489	1166.19568	346.96156	-1116.15616	1198.83179	285.19764	-1099.63707	946.80557	237.80890	-1071.62590	968.05771	208.87356	-1037.25807	970.32143	241.50469	-897.97440	1040.92598	591.24531	-1144.33548	1023.78288	335.96664	-716.81778	592.83051	427.12654	-759.87999	584.60953	532.69379	-831.96983	563.19515	435.25879	-1043.54736	469.19441	380.96317	-1141.28952	513.43567	419.40720	-1059.81377	502.45251	492.68105	-789.70901	222.87580	534.44122	-861.34445	222.79764	505.30396	-851.77574	232.38964	592.05311	-1067.54066	159.30859	408.92883	-1090.21683	149.19237	485.72426	-1006.42273	167.48348	448.88699	-1034.85664	1187.04704	332.85744	-888.29361	1182.18307	474.68105 
87	18.100	-541.19167	1091.65520	-152.51884	-530.52273	1075.05760	-335.61485	-305.19848	1059.62219	-260.01945	-453.88779	1428.40530	-166.09341	-366.73370	1485.14374	-233.18577	-536.45565	1617.40875	-120.73491	-459.53651	1564.41788	-273.02475	-584.62845	1432.27692	-300.46257	-603.70491	1124.09767	-358.21999	-618.04501	1140.41428	-413.25527	-552.13089	1127.29347	-428.30177	-627.49065	879.33640	-315.17277	-656.73752	894.84207	-286.35353	-630.72689	913.24860	-253.92906	-231.47942	1385.51804	-103.23601	-153.56217	1082.04834	-191.72625	-199.33466	1077.66907	-230.28580	-212.68661	1088.32245	-155.23932	-273.76513	854.18327	-129.73746	-274.36136	859.48593	-96.93786	-316.00727	886.49803	-98.45764	-600.96310	918.37791	-302.23083	-275.65588	908.78281	-152.19376	-635.02590	413.14671	-282.46395	-610.55275	454.98383	-357.73781	-539.05441	418.32790	-270.74829	-328.35125	475.08358	-123.14884	-263.21884	493.56411	-215.95486	-384.09878	469.51195	-202.48755	-630.59326	142.35590	-331.31390	-559.93729	133.34645	-342.31003	-599.65797	136.50967	-397.02038	-273.65705	131.47734	-171.92404	-256.11929	128.27267	-239.27490	-329.81304	126.09754	-209.60291	-362.79129	1575.14801	-166.50940	-388.83640	1073.57384	-101.54488	-1018.28758	1174.09042	580.10666	-1140.29160	1182.10548	451.68472	-976.92154	1598.69507	434.25407	-1075.80544	1654.04327	489.99920	-916.54114	1783.04153	323.04184	-981.99135	1795.44327	488.92082	-1083.71140	1790.67932	374.72958	-898.07495	1561.28082	576.19804	-874.70764	1191.88660	534.24957	-819.29428	1200.43282	571.97128	-879.74792	1180.30655	619.32110	-789.52919	923.74481	469.29203	-771.35246	943.03909	435.55363	-808.69095	955.97839	407.29286	-1198.66684	1558.11676	343.60188	-1177.33559	1188.02727	271.03464	-1170.34508	1165.55931	346.56609	-1116.98616	1198.26492	284.59642	-1099.21562	946.10863	238.14390	-1071.16707	967.55402	209.29977	-1036.99959	970.09315	241.87603	-898.35983	1041.12167	591.06300	-1144.34731	1023.52592	335.16563	-717.13387	593.06438	429.12724	-761.24245	584.75224	533.90743	-832.22923	563.06732	435.47218	-1044.07196	469.13601	381.42860	-1141.71837	513.36716	419.85874	-1060.21721	502.42817	493.03947	-789.79019	222.95925	534.51721	-860.88623	222.59764	503.89652	-852.99423	231.83704	590.84614	-1067.66457	159.32212	409.04823	-1090.16418	149.12072	485.89916	-1006.61049	167.54637	449.07383	-1034.77524	1186.93275	332.01744	-888.42636	1182.55501	474.01016 
